<svg xmlns="http://www.w3.org/2000/svg" width="146" height="27" viewBox="0 0 146 27">
    <g fill="none" fill-rule="evenodd">
        <text fill="#000" font-family="SpoqaHanSans-Regular, SpoqaHanSans" font-size="20">
            <tspan x="100" y="23">Scan</tspan>
        </text>
        <path fill="#333" d="M42.51 1.84c-1.557 1.316-2.38 3.244-2.38 5.572v9.926h3.886V7.351c0-1.247.373-2.203 1.106-2.841.813-.707 2.08-1.012 3.659-.877l.6.05V.217l-.488-.054c-.403-.044-.798-.066-1.186-.066-2.04 0-3.85.602-5.198 1.743M78.723 0c-5.045 0-9.15 3.899-9.15 8.691 0 4.793 4.105 8.691 9.15 8.691s9.15-3.898 9.15-8.69c0-4.793-4.105-8.692-9.15-8.692zm-5.169 8.691c0-2.712 2.314-4.91 5.17-4.91 2.854 0 5.168 2.198 5.168 4.91s-2.314 4.91-5.169 4.91c-2.855 0-5.169-2.198-5.169-4.91zM29.352 0c-5.045 0-9.149 3.899-9.149 8.691 0 4.793 4.104 8.691 9.15 8.691 2.425 0 4.633-.903 6.272-2.372l-2.74-2.737c-.924.823-2.166 1.328-3.533 1.328-1.344 0-2.568-.487-3.488-1.287l12.53-4.951-.002-.016-.004-.023C37.695 3.18 33.908 0 29.352 0zm-5.169 8.691c0-2.712 2.314-4.91 5.17-4.91 1.607 0 3.044.698 3.992 1.792L24.2 9.083c-.01-.13-.018-.26-.018-.392zM9.15 0C4.104 0 0 3.899 0 8.691c0 4.793 4.104 8.691 9.15 8.691l5.332-.044H18.3v-8.42c0-.048-.003-.097-.003-.146l.002-.08C18.299 3.898 14.194 0 9.149 0zM3.98 8.691c0-2.712 2.314-4.91 5.17-4.91 2.854 0 5.168 2.198 5.168 4.91v4.91H9.15c-2.855 0-5.169-2.198-5.169-4.91z"/>
        <path fill="#FF33B3" d="M58.853 3.768c1.808 0 3.253.989 3.784 1.56.674.724 1.748 2.073 1.275 4.677-.202 1.11-.957 2.064-1.732 2.76l2.692 2.689c1.375-1.228 2.686-3.042 3.023-5.093.226-1.373.48-3.603-1.511-6.562-1.265-1.878-3.788-3.076-4.85-3.387C59.28-.246 56.666.24 56.23.365c-1.798.52-3.145 1.335-4.135 2.327l2.827 2.824c.77-.962 2.006-1.697 3.93-1.748"/>
        <path fill="#333" d="M61.103 13.579c-.98.613-2.439 1.185-4.53 2.011L52.88 17l-.74.277c-2.02.75-5.403 2.009-7.192 4.368-1.473 1.94-1.73 4.229-1.774 5.123l-.004.1h3.958l.007-.089c.054-.669.258-1.942 1.021-2.948 1.108-1.462 3.917-2.507 5.433-3.071l1.24-.463 3.691-1.418c2.013-.805 3.423-1.511 4.512-2.11.602-.33 1.236-.775 1.841-1.315l-2.692-2.69c-.374.336-.753.612-1.077.815"/>
        <path fill="#333" d="M49.808 10.046c.37 3.61 2.898 6.66 3.07 6.954l1.95 3.297c.546.923 1.023 1.738 1.37 2.36 1.069 1.92 1.22 3.402 1.216 4.115v.096h3.954v-.096c.002-1.299-.287-3.37-1.676-5.864-.305-.548-.71-1.242-1.173-2.03l-1.945-3.288c-.26-.465-2.364-3.16-2.755-5.943-.14-.996.028-2.786 1.104-4.13l-2.827-2.825c-2.032 2.038-2.546 4.825-2.288 7.354"/>
    </g>
</svg>
