<svg xmlns="http://www.w3.org/2000/svg" width="80" height="80" viewBox="0 0 80 80">
    <g fill="none" fill-rule="evenodd">
        <circle cx="40" cy="40" r="40" fill="#FFF"/>
        <g fill-rule="nonzero">
            <path fill="#FF33B3" stroke="#333" stroke-width="3" d="M30 20.5c-2.358 0-4.499 1.015-6.046 2.673-1.512 1.62-2.454 3.854-2.454 6.327s.942 4.708 2.454 6.327C25.5 37.485 27.642 38.5 30 38.5s4.499-1.015 6.046-2.673c1.512-1.62 2.454-3.854 2.454-6.327s-.942-4.708-2.454-6.327C34.5 21.515 32.358 20.5 30 20.5z" transform="translate(11 10)"/>
            <path fill="#333" d="M35.26 52.845h-2.912v4.77C32.348 58.932 31.296 60 30 60c-1.296 0-2.348-1.068-2.348-2.385v-4.77H24.74c-.657 0-.986-.808-.521-1.28l5.26-5.345c.289-.293.756-.293 1.044 0l5.26 5.345c.465.472.136 1.28-.521 1.28zM35.782 8.435l-5.26 5.345c-.289.293-.756.293-1.044 0l-5.26-5.345c-.465-.472-.136-1.28.521-1.28h2.913v-4.77C27.652 1.068 28.704 0 30 0c1.296 0 2.348 1.068 2.348 2.385v4.77h2.913c.657 0 .986.808.521 1.28zM51.845 24.74v2.912h4.77C57.932 27.652 59 28.704 59 30c0 1.296-1.068 2.348-2.385 2.348h-4.77v2.913c0 .657-.808.986-1.28.521l-5.345-5.26c-.293-.289-.293-.756 0-1.044l5.345-5.26c.472-.465 1.28-.136 1.28.521zM8.435 24.218l5.345 5.26c.293.289.293.756 0 1.044l-5.345 5.26c-.472.465-1.28.136-1.28-.521v-2.913h-4.77C1.068 32.348 0 31.296 0 30c0-1.296 1.068-2.348 2.385-2.348h4.77V24.74c0-.657.808-.986 1.28-.521z" transform="translate(11 10)"/>
        </g>
    </g>
</svg>
