<svg xmlns="http://www.w3.org/2000/svg" width="80" height="80" viewBox="0 0 80 80">
    <g fill="none" fill-rule="evenodd">
        <circle cx="40" cy="40" r="40" fill="#FFF"/>
        <g fill-rule="nonzero">
            <path fill="#333" d="M26 59.753c-.912-.004-1.807-.247-2.6-.706L2.6 46.8C1.032 45.88.047 44.195 0 42.353V17.647c-.001-1.893.99-3.642 2.6-4.588L23.4.812c1.616-.918 3.584-.918 5.2 0l20.8 12.247c1.61.946 2.601 2.695 2.6 4.588v24.706c.001 1.893-.99 3.642-2.6 4.588L28.6 59.188c-.806.41-1.7.604-2.6.565zm0-55.977c-.306-.006-.608.08-.867.248l-20.8 12.211c-.494.303-.816.827-.866 1.412v24.706c.005.635.333 1.223.866 1.553l20.8 12.212c.537.315 1.197.315 1.734 0l20.8-12.212c.533-.33.861-.918.866-1.553V17.647c-.005-.635-.333-1.223-.866-1.553l-20.8-12.212c-.273-.118-.574-.155-.867-.106z" transform="translate(14 11.5)"/>
            <path fill="#FF33B3" stroke="#333" stroke-linejoin="round" stroke-width="2" d="M28.733 40.432h-5.466v5.53h5.466v-5.53zm2.758-25.09H20.51l2.894 19.648h5.194l2.894-19.647z" transform="translate(14 11.5)"/>
        </g>
    </g>
</svg>
