<svg xmlns="http://www.w3.org/2000/svg" width="80" height="80" viewBox="0 0 80 80">
    <g fill="none" fill-rule="evenodd">
        <circle cx="40" cy="40" r="40" fill="#FFF"/>
        <g fill-rule="nonzero">
            <g fill="#333" stroke="#FFF" stroke-width="2">
                <path d="M50 1.4c0-.773-.627-1.4-1.4-1.4H37.4c-.773 0-1.4.627-1.4 1.4v2.8c0 .773.627 1.4 1.4 1.4h7v7c0 .773.627 1.4 1.4 1.4h2.8c.773 0 1.4-.627 1.4-1.4V1.4zM5.6 5.6h7c.773 0 1.4-.627 1.4-1.4V1.4c0-.773-.627-1.4-1.4-1.4H1.4C.627 0 0 .627 0 1.4v11.2c0 .773.627 1.4 1.4 1.4h2.8c.773 0 1.4-.627 1.4-1.4v-7zM12.6 50c.773 0 1.4-.627 1.4-1.4v-2.8c0-.773-.627-1.4-1.4-1.4h-7v-7c0-.773-.627-1.4-1.4-1.4H1.4c-.773 0-1.4.627-1.4 1.4v11.2c0 .773.627 1.4 1.4 1.4h11.2zM37.4 50c-.773 0-1.4-.627-1.4-1.4v-2.8c0-.773.627-1.4 1.4-1.4h7v-7c0-.773.627-1.4 1.4-1.4h2.8c.773 0 1.4.627 1.4 1.4v11.2c0 .773-.627 1.4-1.4 1.4H37.4z" transform="translate(15 15)"/>
            </g>
            <path fill="#FF33B3" stroke="#333" stroke-width="3" d="M26-1.5h-2c-.73 0-1.466.361-1.97 1.15-.314.49-.53 1.16-.53 1.913v46.874c0 .752.216 1.424.53 1.914.504.788 1.24 1.149 1.97 1.149h2c.73 0 1.466-.361 1.97-1.15.314-.49.53-1.16.53-1.913V1.563c0-.752-.216-1.424-.53-1.914C27.466-1.139 26.73-1.5 26-1.5z" transform="translate(15 15)"/>
        </g>
    </g>
</svg>
